<?xml version="1.0" encoding="UTF-8"?>
<svg version="1.1" xmlns="http://www.w3.org/2000/svg" width="512" height="512">
<path d="M0 0 C1.75373932 0.00323273 1.75373932 0.00323273 3.54290771 0.00653076 C69.24458603 0.19959703 143.30107091 8.80483429 193.5625 55.3125 C194.33134521 56.0235791 194.33134521 56.0235791 195.11572266 56.74902344 C231.06363142 90.43542057 245.38652612 138.37912206 252.3125 185.8125 C252.46434753 186.83621704 252.46434753 186.83621704 252.6192627 187.88061523 C255.91068232 210.40028279 256.95134516 233.01179902 256.875 255.75 C256.87284485 256.91915955 256.8706897 258.08831909 256.86846924 259.29290771 C256.68721609 320.97450706 249.73686582 393.77063189 207.5625 442.3125 C206.84320313 443.14136719 206.12390625 443.97023438 205.3828125 444.82421875 C203.14342131 447.35418838 200.86682268 449.84159978 198.5625 452.3125 C197.86511719 453.06402344 197.16773438 453.81554687 196.44921875 454.58984375 C186.79968062 464.6274803 175.58415013 472.38071811 163.5625 479.3125 C162.47066406 479.95832031 161.37882812 480.60414063 160.25390625 481.26953125 C85.69928595 524.08527531 -26.29276361 520.73397104 -113.8984375 499.1953125 C-139.76290373 491.9368449 -164.99746816 481.07130109 -185.4375 463.3125 C-186.26636719 462.59320313 -187.09523438 461.87390625 -187.94921875 461.1328125 C-190.47918838 458.89342131 -192.96659978 456.61682268 -195.4375 454.3125 C-196.56478516 453.26642578 -196.56478516 453.26642578 -197.71484375 452.19921875 C-207.7524803 442.54968062 -215.50571811 431.33415013 -222.4375 419.3125 C-223.08332031 418.22066406 -223.72914063 417.12882812 -224.39453125 416.00390625 C-265.20381114 344.94312163 -262.36090812 242.38189353 -243 144.25 C-235.51585568 117.53178996 -224.81422293 91.46374776 -206.4375 70.3125 C-205.71820313 69.48363281 -204.99890625 68.65476562 -204.2578125 67.80078125 C-202.01842131 65.27081162 -199.74182268 62.78340022 -197.4375 60.3125 C-196.74011719 59.56097656 -196.04273438 58.80945312 -195.32421875 58.03515625 C-162.81677801 24.22028645 -114.88536349 11.12555206 -69.9375 4.5625 C-69.25502197 4.46126831 -68.57254395 4.36003662 -67.86938477 4.2557373 C-45.34971721 0.96431768 -22.73820098 -0.07634516 0 0 Z " fill="#38A0FE" transform="translate(255.4375,-0.3125)"/>
<path d="M0 0 C5.33255725 3.99941794 10.15968196 7.81479347 14.87109375 12.4296875 C15.47889175 13.02371368 16.08668976 13.61773987 16.71290588 14.22976685 C17.98189655 15.47568942 19.24806613 16.72449147 20.51147461 17.97607422 C22.4420764 19.87951201 24.39534282 21.75762571 26.34960938 23.63671875 C27.58741302 24.85788118 28.82379275 26.08048898 30.05859375 27.3046875 C30.9319059 28.13321732 30.9319059 28.13321732 31.82286072 28.97848511 C35.96437387 33.16590456 36.78873527 36.11906351 37 42 C39.66938038 42.61714588 39.66938038 42.61714588 43 42 C45.91467152 39.88252312 48.29537397 37.31332293 50.75 34.6875 C51.42160156 33.99720703 52.09320313 33.30691406 52.78515625 32.59570312 C55.46402143 29.8175213 57.85333045 27.22000433 60 24 C74.34827478 38.30161437 88.69086509 52.60890554 103.0266571 66.92303276 C109.68270802 73.56875828 116.34062665 80.21259251 123.00292969 86.85205078 C128.80780947 92.63703529 134.60919961 98.42549237 140.40637493 104.21819794 C143.47783664 107.28704571 146.55105196 110.35409103 149.62844849 113.41698837 C152.52189081 116.29690774 155.41066223 119.18142882 158.29584122 122.06962585 C159.35837462 123.13160672 160.42263724 124.19186056 161.48870468 125.25029373 C162.9383757 126.6900865 164.38137845 128.13658424 165.82397461 129.58346558 C166.63515244 130.39279982 167.44633026 131.20213406 168.28208923 132.03599358 C170 134 170 134 170 136 C170.66 136 171.32 136 172 136 C172 136.66 172 137.32 172 138 C172.66 138 173.32 138 174 138 C174.1932853 147.02117365 173.63623014 155.9548106 172.875 164.9375 C172.81131226 165.68933563 172.74762451 166.44117126 172.68200684 167.21578979 C168.42377039 216.18486724 158.18324956 269.80673041 125 308 C124.28070313 308.82886719 123.56140625 309.65773438 122.8203125 310.51171875 C120.58092131 313.04168838 118.30432268 315.52909978 116 318 C115.30261719 318.75152344 114.60523438 319.50304687 113.88671875 320.27734375 C104.23718062 330.3149803 93.02165013 338.06821811 81 345 C79.90816406 345.64582031 78.81632812 346.29164063 77.69140625 346.95703125 C41.353188 367.82559507 -4.2620547 375.06006974 -45.66609192 377.36828613 C-50.9809081 377.66857018 -56.21336886 378.13092506 -61.48444182 378.87456942 C-75.36757176 380.74537736 -88.899078 381.47788047 -100.55679321 372.67749023 C-108.86661464 365.97300719 -116.15893082 358.13873845 -123.41586137 350.33571434 C-127.08822821 346.42889314 -130.86881454 342.62949011 -134.6381073 338.81652832 C-141.7299416 331.61057891 -148.72232434 324.31589351 -155.68212003 316.98258448 C-163.62214229 308.62612452 -171.67003677 300.37696985 -179.72776759 292.13420582 C-196.27276653 275.2044952 -212.68091812 258.1473876 -229 241 C-228.34 240.67 -227.68 240.34 -227 240 C-224.64608709 241.09173651 -222.44021622 242.38280814 -220.19140625 243.67578125 C-209.0583715 248.2952412 -196.59560621 247.29051293 -184.77807617 247.2746582 C-182.63170699 247.27901068 -180.48533935 247.28419562 -178.338974 247.29014587 C-172.53306778 247.3034899 -166.72722684 247.30411963 -160.92130828 247.30158257 C-156.06325394 247.30050967 -151.20521264 247.30540444 -146.34716111 247.310188 C-134.87978686 247.32126745 -123.41244537 247.32172948 -111.94506836 247.31567383 C-100.14068916 247.30963576 -88.3364292 247.32194447 -76.53207034 247.3432439 C-66.37374433 247.3608949 -56.21545615 247.36685571 -46.05711538 247.36360615 C-40.00041255 247.36179862 -33.94379479 247.3643764 -27.88710594 247.37832069 C-22.18820737 247.3909513 -16.48949384 247.38890558 -10.79059792 247.37590981 C-8.7082068 247.37355579 -6.62580244 247.37623619 -4.54342651 247.38453293 C17.61450367 247.46639791 37.9754179 244.21505782 54.83984375 228.421875 C69.50755996 211.97705755 74.22033512 193.40602789 73.23388672 171.81298828 C71.9428861 156.2859432 63.26348378 141.50299309 52 131 C48.7763282 128.48213212 45.43858683 126.21215753 42 124 C40.79067144 123.18898204 39.58215011 122.37675691 38.375 121.5625 C37.199375 120.7890625 37.199375 120.7890625 36 120 C37.34791837 117.23614902 38.81902873 114.58859754 40.375 111.9375 C47.56585318 99.08757301 50.09567698 85.08436379 47.3515625 70.5703125 C42.60806585 55.2857122 33.87397229 44.16369071 19.953125 36.46875 C14.4910239 33.75214945 9.15465142 32.20928154 3.1875 31.0625 C-0.58811391 30.27701389 -2.67685611 29.23220019 -5 26 C-5 25.34 -5 24.68 -5 24 C-3.02 23.505 -3.02 23.505 -1 23 C-0.67 15.41 -0.34 7.82 0 0 Z " fill="#1786EE" transform="translate(338,134)"/>
<path d="M0 0 C11.65098697 8.68830742 19.86049458 20.70490865 23 35 C24.00503989 51.32777918 21.66056042 66.05503377 11 79 C11 79.66 11 80.32 11 81 C12.58224899 82.08591613 14.21920412 83.0924146 15.875 84.0625 C31.96018811 94.06922371 42.60470145 108.68579457 47.40234375 127.04516602 C48.37931146 131.87532949 48.43466867 136.58727955 48.375 141.5 C48.38660156 142.45519531 48.39820313 143.41039062 48.41015625 144.39453125 C48.36965835 154.3705143 45.86740387 163.22765429 41.3125 172.0625 C40.96364746 172.74441406 40.61479492 173.42632812 40.25537109 174.12890625 C34.97936883 184.13601607 28.21182979 191.45438128 19 198 C18.23042969 198.556875 17.46085937 199.11375 16.66796875 199.6875 C5.6725143 206.9813338 -8.01634065 209.15790669 -20.9995575 209.13371277 C-21.89530434 209.13597833 -22.79105118 209.13824388 -23.71394187 209.14057809 C-26.70994253 209.14689884 -29.70589772 209.14608995 -32.7019043 209.14526367 C-34.85240233 209.14825641 -37.00289982 209.1516592 -39.15339661 209.15544128 C-44.99243952 209.16427492 -50.83146778 209.16661916 -56.67051673 209.16725707 C-60.32067311 209.16796806 -63.97082576 209.17010333 -67.62098122 209.17275429 C-80.36149965 209.18200636 -93.10200762 209.18608944 -105.8425293 209.18530273 C-117.70761633 209.18470232 -129.57265784 209.19524734 -141.43773335 209.2110464 C-151.63242388 209.22413616 -161.82709956 209.22948601 -172.02179843 209.22884732 C-178.10696787 209.22859271 -184.19209687 209.23142345 -190.27725792 209.24202538 C-196.00395004 209.25173021 -201.73056327 209.25176915 -207.45725822 209.24450874 C-209.55380621 209.24346579 -211.65035917 209.24580852 -213.74689865 209.2518692 C-231.17160204 209.29895957 -244.81511456 208.50485387 -259.3125 197.75 C-271.23864426 185.54650355 -276.30705399 172.20479317 -276.38720703 155.44799805 C-276.17271939 142.80648209 -270.98976038 133.45051118 -262.5625 124.375 C-261.2940625 123.199375 -261.2940625 123.199375 -260 122 C-259.26716797 121.27683594 -259.26716797 121.27683594 -258.51953125 120.5390625 C-249.08962928 111.71392859 -237.06230392 108.5369218 -224.453125 108.7421875 C-216.62748223 109.32645495 -208.78196394 110.93082164 -202 115 C-202.0825 113.845 -202.165 112.69 -202.25 111.5 C-202.12189693 91.03553514 -190.3397382 71.19898406 -176.75 56.69921875 C-159.67305165 39.93761177 -136.15365544 30.7201172 -112.35742188 30.54589844 C-102.63837235 30.76070645 -93.31307384 33.39688094 -84 36 C-83.89558594 34.82050781 -83.79117188 33.64101562 -83.68359375 32.42578125 C-82.22133863 20.90260267 -74.47986453 10.49686347 -66 3 C-45.52839346 -12.25083251 -21.79343421 -13.34410812 0 0 Z " fill="#C0DCFE" transform="translate(364,173)"/>
<path d="M0 0 C11.65098697 8.68830742 19.86049458 20.70490865 23 35 C23.67773177 46.01036371 23.24018675 55.64809579 19 66 C18.53207031 67.15242188 18.53207031 67.15242188 18.0546875 68.328125 C15.82615987 73.2346312 12.66981227 77.08553358 9 81 C7.67935547 80.58427734 7.67935547 80.58427734 6.33203125 80.16015625 C5.17058594 79.79792969 4.00914062 79.43570313 2.8125 79.0625 C1.08966797 78.52302734 1.08966797 78.52302734 -0.66796875 77.97265625 C-6.88616958 76.15749563 -12.42713868 75.8466785 -18.875 75.875 C-19.74769531 75.87113281 -20.62039063 75.86726563 -21.51953125 75.86328125 C-26.4536442 75.87070097 -31.13613352 76.16505834 -36 77 C-43.94965003 66.15605991 -43.94965003 66.15605991 -46.1875 62.5625 C-48.1755499 59.75180876 -50.26311713 58.06935046 -53 56 C-53.763125 55.21625 -54.52625 54.4325 -55.3125 53.625 C-63.67427633 45.45768358 -73.34910236 41.48339067 -84 37 C-83.07971977 23.23665459 -76.2556184 12.06676878 -66 3 C-45.52839346 -12.25083251 -21.79343421 -13.34410812 0 0 Z " fill="#FEDB5D" transform="translate(364,173)"/>
<path d="M0 0 C-0.33 0.66 -0.66 1.32 -1 2 C-0.01 2 0.98 2 2 2 C2 2.66 2 3.32 2 4 C-0.24062157 5.62679407 -2.48143342 7.13785835 -4.8125 8.625 C-6.18868435 9.52162231 -7.56367437 10.42008027 -8.9375 11.3203125 C-9.96617187 11.99368652 -9.96617187 11.99368652 -11.015625 12.68066406 C-21.42847291 18.94718466 -21.42847291 18.94718466 -27.29296875 28.78125 C-28.75167257 33.35883989 -30.94600967 37.66466927 -33 42 C-34.32 42 -35.64 42 -37 42 C-36.78750202 29.67511741 -30.18017637 19.16238342 -21.8359375 10.484375 C-7.3506676 -2.20520028 -7.3506676 -2.20520028 0 0 Z M-2 2 C-2.33 2.66 -2.66 3.32 -3 4 C-2.34 4 -1.68 4 -1 4 C-1.33 3.34 -1.66 2.68 -2 2 Z " fill="#FFCE35" transform="translate(317,168)"/>
<path d="M0 0 C1.06734375 -0.00257813 2.1346875 -0.00515625 3.234375 -0.0078125 C4.91273438 0.00378906 4.91273438 0.00378906 6.625 0.015625 C7.74390625 0.00789062 8.8628125 0.00015625 10.015625 -0.0078125 C11.08296875 -0.00523437 12.1503125 -0.00265625 13.25 0 C14.23226563 0.00225586 15.21453125 0.00451172 16.2265625 0.00683594 C18.625 0.265625 18.625 0.265625 20.625 2.265625 C20.98220495 5.05182357 21.11332203 6.60317034 19.41796875 8.90307617 C17.04562077 10.7059185 15.58505878 10.63885558 12.625 10.62890625 C11.655625 10.62826172 10.68625 10.62761719 9.6875 10.62695312 C8.1715625 10.6027832 8.1715625 10.6027832 6.625 10.578125 C5.614375 10.58134766 4.60375 10.58457031 3.5625 10.58789062 C-3.97428571 10.53276786 -3.97428571 10.53276786 -7.375 8.265625 C-7.6875 5.265625 -7.6875 5.265625 -7.375 2.265625 C-4.76631631 -0.34305869 -3.62967636 0.00833587 0 0 Z " fill="#F7D85F" transform="translate(400.375,212.734375)"/>
<path d="M0 0 C3.04103566 3.04103566 2.29330847 6.04841086 2.32226562 10.20507812 C2.31904297 11.27177734 2.31582031 12.33847656 2.3125 13.4375 C2.32861328 14.50033203 2.34472656 15.56316406 2.36132812 16.65820312 C2.36197266 17.67720703 2.36261719 18.69621094 2.36328125 19.74609375 C2.36626221 20.68122803 2.36924316 21.6163623 2.37231445 22.57983398 C2 25 2 25 0.67260742 26.84008789 C-1 28 -1 28 -4.125 27.8125 C-5.07375 27.544375 -6.0225 27.27625 -7 27 C-8.93940303 23.12119395 -8.22841185 18.32885864 -8.25 14.0625 C-8.270625 13.04736328 -8.29125 12.03222656 -8.3125 10.98632812 C-8.31765625 10.01244141 -8.3228125 9.03855469 -8.328125 8.03515625 C-8.3374707 7.1419165 -8.34681641 6.24867676 -8.35644531 5.32836914 C-7.60002375 0.3872784 -4.62275245 -0.59266057 0 0 Z " fill="#F9F1A5" transform="translate(336,130)"/>
<path d="M0 0 C0.66 0.66 1.32 1.32 2 2 C1.55954486 7.94037289 -2.17490891 10.87381912 -6.1875 14.875 C-6.84814453 15.57625 -7.50878906 16.2775 -8.18945312 17 C-10.05518009 18.87861945 -11.78902993 20.54205392 -14 22 C-17.48828125 21.9453125 -17.48828125 21.9453125 -20 21 C-20.9375 18.5 -20.9375 18.5 -21 15 C-19.04582741 11.96766323 -16.55536408 9.53102728 -14 7 C-13.35417969 6.3296875 -12.70835937 5.659375 -12.04296875 4.96875 C-5.68488584 -1.5633436 -5.68488584 -1.5633436 0 0 Z " fill="#F5E994" transform="translate(395,155)"/>
<path d="M0 0 C4.71301284 1.47350636 7.31124315 4.24915335 10.7109375 7.73046875 C11.35160156 8.34341797 11.99226563 8.95636719 12.65234375 9.58789062 C15.59155003 12.54276432 17.18306496 14.1962137 17.9375 18.375 C17.3359375 21.04296875 17.3359375 21.04296875 14.3359375 23.04296875 C10.51124472 23.11664935 8.51861499 21.5380999 5.78515625 19.09375 C4.52067024 17.85839351 3.26702357 16.61186209 2.0234375 15.35546875 C1.37826172 14.74251953 0.73308594 14.12957031 0.06835938 13.49804688 C-4.52148623 8.91791523 -4.52148623 8.91791523 -5.20703125 4.7109375 C-4.47084149 1.09354467 -3.76561271 0.06073569 0 0 Z " fill="#F7E993" transform="translate(274.6640625,153.95703125)"/>
<path d="M0 0 C7.2181961 9.01769037 7.11233828 20.95800783 6 32 C5.08219836 36.54194147 3.75462056 40.71630566 2 45 C1.53207031 46.15242188 1.53207031 46.15242188 1.0546875 47.328125 C-1.17384013 52.2346312 -4.33018773 56.08553358 -8 60 C-9.98 59.34 -11.96 58.68 -14 58 C-12.515 57.505 -12.515 57.505 -11 57 C-9.89363605 54.60931266 -9.89363605 54.60931266 -9 52 C-8.34 51.01 -7.68 50.02 -7 49 C-6.34 49 -5.68 49 -5 49 C-4.67 46.69 -4.34 44.38 -4 42 C-2.515 41.505 -2.515 41.505 -1 41 C-0.855625 40.05125 -0.71125 39.1025 -0.5625 38.125 C0 35 0 35 1 33 C1.09572756 31.54674725 1.13074081 30.08921321 1.1328125 28.6328125 C1.13474609 27.75197998 1.13667969 26.87114746 1.13867188 25.96362305 C1.13416016 25.02687744 1.12964844 24.09013184 1.125 23.125 C1.12306641 22.17858643 1.12113281 21.23217285 1.11914062 20.25708008 C1.07727556 13.45807756 0.78356263 6.75822773 0 0 Z " fill="#FFD955" transform="translate(381,194)"/>
<path d="M0 0 C0.66 0.33 1.32 0.66 2 1 C2 1.66 2 2.32 2 3 C3.19689453 3.34611328 3.19689453 3.34611328 4.41796875 3.69921875 C7 5 7 5 7.92578125 7.08203125 C8.90086994 13.9667484 9.22195345 20.80465442 9.3125 27.75 C9.33030518 28.6366333 9.34811035 29.5232666 9.36645508 30.43676758 C9.35933443 36.29267675 8.49657859 40.6788252 6 46 C5.01 46.495 5.01 46.495 4 47 C3.690625 48.11375 3.38125 49.2275 3.0625 50.375 C2.02324433 53.9206958 1.60481248 54.70776501 -1 57 C-2.03357147 58.64605826 -3.04060332 60.30963442 -4 62 C-5.32 61.67 -6.64 61.34 -8 61 C-7.38511719 60.16597656 -6.77023437 59.33195312 -6.13671875 58.47265625 C3.13707939 45.66962027 6.53839295 33.99187561 4 18 C3.8079662 14.8794508 3.6285027 11.75948977 3.4765625 8.63671875 C2.93628189 5.64746129 2.17457086 4.98269696 0 3 C0 2.01 0 1.02 0 0 Z " fill="#FFCF38" transform="translate(374,189)"/>
<path d="M0 0 C0.79873535 0.00563965 1.5974707 0.0112793 2.42041016 0.01708984 C3.23719238 0.02272949 4.05397461 0.02836914 4.89550781 0.03417969 C17.98298663 0.29587744 31.06568947 4.89723115 40.84619141 13.87255859 C41.98291016 15.32958984 41.98291016 15.32958984 42.42041016 18.20458984 C42.27603516 18.90583984 42.13166016 19.60708984 41.98291016 20.32958984 C42.64291016 20.32958984 43.30291016 20.32958984 43.98291016 20.32958984 C43.65291016 21.64958984 43.32291016 22.96958984 42.98291016 24.32958984 C42.73541016 23.54583984 42.48791016 22.76208984 42.23291016 21.95458984 C40.74565602 18.83135616 40.04706745 18.69143753 36.98291016 17.32958984 C34.83799466 15.77347468 32.95237312 14.12001072 30.98291016 12.32958984 C30.98291016 11.66958984 30.98291016 11.00958984 30.98291016 10.32958984 C27.68291016 9.33958984 24.38291016 8.34958984 20.98291016 7.32958984 C20.98291016 6.66958984 20.98291016 6.00958984 20.98291016 5.32958984 C11.38228247 3.15147387 1.78158048 2.73921523 -8.01708984 2.32958984 C-5.41592779 -0.27157221 -3.54840544 0.0450131 0 0 Z " fill="#F6CD40" transform="translate(329.01708984375,163.67041015625)"/>
<path d="M0 0 C0.99 0.33 1.98 0.66 3 1 C-0.58875915 5.64502514 -3.50363484 8.64441493 -9 11 C-15.26807357 14.24596667 -21.3517444 18.11453545 -24 25 C-25 23 -25 23 -24.4375 20.1875 C-22.68031834 16.29114066 -20.3942172 14.40452758 -17 12 C-15.82630859 11.16275391 -15.82630859 11.16275391 -14.62890625 10.30859375 C-12.916139 9.10157512 -11.19600811 7.9049393 -9.46875 6.71875 C-7.28562498 5.19885284 -5.176943 3.61271076 -3.0625 2 C-1.5465625 1.01 -1.5465625 1.01 0 0 Z " fill="#FFD448" transform="translate(314,174)"/>
<path d="M0 0 C1.30954038 2.61908076 0.63941328 4.07081202 -0.1875 6.78125 C-1.84459726 11.30640022 -3.93809055 15.64795449 -6 20 C-7.32 20 -8.64 20 -10 20 C-9.64134677 12.58783319 -7.64079463 7.43520528 -4 1 C-3.01 1 -2.02 1 -1 1 C-0.67 0.67 -0.34 0.34 0 0 Z " fill="#FFCF38" transform="translate(290,190)"/>
<path d="M0 0 C-3.29094216 3.66704983 -5.16621398 5.23677063 -10 6 C-11.54166642 7.37485532 -11.54166642 7.37485532 -13 9 C-14.65532623 10.01866229 -16.32260138 11.01810813 -18 12 C-18.721875 12.556875 -19.44375 13.11375 -20.1875 13.6875 C-22 15 -22 15 -24 15 C-24.66 16.32 -25.32 17.64 -26 19 C-26.66 18.67 -27.32 18.34 -28 18 C-22.41107761 10.95246996 -10.11057767 -3.0331733 0 0 Z " fill="#F3C223" transform="translate(317,168)"/>
<path d="M0 0 C2.28208391 4.09807637 2.38459473 7.8291496 2.375 12.4375 C2.37338867 13.23720215 2.37177734 14.0369043 2.37011719 14.86083984 C2.16669059 24.8267488 -0.52870447 37.22547604 -7.62109375 44.7109375 C-8.30365234 45.34902344 -8.30365234 45.34902344 -9 46 C-9 44.68 -9 43.36 -9 42 C-8.34 42 -7.68 42 -7 42 C-7 41.01 -7 40.02 -7 39 C-6.34 39 -5.68 39 -5 39 C-4.814375 37.7934375 -4.814375 37.7934375 -4.625 36.5625 C-2.64864865 25.2972973 -2.64864865 25.2972973 -1 22 C-0.84777027 20.33434251 -0.75082785 18.66343504 -0.68359375 16.9921875 C-0.64169922 16.00605469 -0.59980469 15.01992187 -0.55664062 14.00390625 C-0.51732422 12.97136719 -0.47800781 11.93882812 -0.4375 10.875 C-0.39431641 9.83472656 -0.35113281 8.79445312 -0.30664062 7.72265625 C-0.2003712 5.14857472 -0.09833417 2.57439492 0 0 Z " fill="#ECDE80" transform="translate(385,204)"/>
<path d="M0 0 C0.33 0 0.66 0 1 0 C2.33682671 25.93443822 2.33682671 25.93443822 -5.5625 34.7421875 C-6.036875 35.15726563 -6.51125 35.57234375 -7 36 C-8.03357147 37.64605826 -9.04060332 39.30963442 -10 41 C-11.32 40.67 -12.64 40.34 -14 40 C-13.38511719 39.16597656 -12.77023437 38.33195312 -12.13671875 37.47265625 C-3.23812345 25.19424432 -1.37187422 14.96149889 0 0 Z " fill="#FFC926" transform="translate(380,210)"/>
<path d="M0 0 C1.98 1.65 3.96 3.3 6 5 C4.50902342 8.7952131 2.24299151 10.61042731 -1 13 C-2.65 11.02 -4.3 9.04 -6 7 C-4.7934375 6.6596875 -4.7934375 6.6596875 -3.5625 6.3125 C-2.716875 5.879375 -1.87125 5.44625 -1 5 C-0.10613836 2.45224694 -0.10613836 2.45224694 0 0 Z " fill="#0881D2" transform="translate(292,170)"/>
<path d="M0 0 C0.74362793 0.01047363 1.48725586 0.02094727 2.25341797 0.03173828 C3.46191406 0.04140625 3.46191406 0.04140625 4.69482422 0.05126953 C5.95746094 0.07640625 5.95746094 0.07640625 7.24560547 0.10205078 C8.51984375 0.11558594 8.51984375 0.11558594 9.81982422 0.12939453 C11.9202043 0.15299431 14.02043991 0.18886595 16.12060547 0.22705078 C16.12060547 0.88705078 16.12060547 1.54705078 16.12060547 2.22705078 C17.11060547 2.30955078 18.10060547 2.39205078 19.12060547 2.47705078 C23.59517495 3.09013085 27.21631232 5.04673123 31.12060547 7.22705078 C27.37060547 8.35205078 27.37060547 8.35205078 25.12060547 7.22705078 C25.12060547 6.56705078 25.12060547 5.90705078 25.12060547 5.22705078 C15.51997779 3.04893481 5.91927579 2.63667616 -3.87939453 2.22705078 C-1.87939453 0.22705078 -1.87939453 0.22705078 0 0 Z " fill="#F5C62D" transform="translate(324.87939453125,163.77294921875)"/>
<path d="M0 0 C0.66 0.33 1.32 0.66 2 1 C1.01 1.66 0.02 2.32 -1 3 C-0.67 2.01 -0.34 1.02 0 0 Z M-1 3 C-1 3.66 -1 4.32 -1 5 C-1.845625 5.37125 -2.69125 5.7425 -3.5625 6.125 C-9.93491768 9.60086419 -14.54733808 14.33297574 -19 20 C-20.125 16.25 -20.125 16.25 -19 14 C-17.66666667 13.33333333 -16.33333333 12.66666667 -15 12 C-13.97702078 11.02351983 -12.98095748 10.01868662 -12 9 C-5.14285714 3 -5.14285714 3 -1 3 Z " fill="#FCC92A" transform="translate(307,173)"/>
<path d="M0 0 C0.33 0 0.66 0 1 0 C1.17942163 3.94727588 1.09350689 6.5980513 -1 10 C-1.66 10 -2.32 10 -3 10 C-3.12375 10.763125 -3.2475 11.52625 -3.375 12.3125 C-4 15 -4 15 -6 18 C-7.65 17.67 -9.3 17.34 -11 17 C-10.01 16.67 -9.02 16.34 -8 16 C-6.89363605 13.60931266 -6.89363605 13.60931266 -6 11 C-5.34 10.01 -4.68 9.02 -4 8 C-3.34 8 -2.68 8 -2 8 C-1.855625 6.865625 -1.71125 5.73125 -1.5625 4.5625 C-1 1 -1 1 0 0 Z " fill="#FED347" transform="translate(378,235)"/>
<path d="M0 0 C4.52251939 3.10115615 7.82408507 6.95394967 10 12 C9.67 12.99 9.34 13.98 9 15 C6.66666667 12.66666667 4.33333333 10.33333333 2 8 C2 6.68 2 5.36 2 4 C1.34 4 0.68 4 0 4 C0 2.68 0 1.36 0 0 Z " fill="#F2D661" transform="translate(371,180)"/>
<path d="M0 0 C0 3.25861252 -0.78950212 5.00935818 -2 8 C-2.165 8.9075 -2.33 9.815 -2.5 10.75 C-2.665 11.4925 -2.83 12.235 -3 13 C-3.99 13.495 -3.99 13.495 -5 14 C-6.32 13.01 -7.64 12.02 -9 11 C-8.34 10.67 -7.68 10.34 -7 10 C-6.54625 8.88625 -6.0925 7.7725 -5.625 6.625 C-4.05631991 3.12563673 -3.21890769 1.88694589 0 0 Z " fill="#FDE277" transform="translate(294,200)"/>
<path d="M0 0 C0.33 0.66 0.66 1.32 1 2 C0.01 2.99 -0.98 3.98 -2 5 C-1.34 3.35 -0.68 1.7 0 0 Z M-3 5 C-1.60804085 9.17587745 -3.17676781 11.13474776 -5 15 C-6.32 15 -7.64 15 -9 15 C-9 13.35 -9 11.7 -9 10 C-7.35 9.67 -5.7 9.34 -4 9 C-3.67 7.68 -3.34 6.36 -3 5 Z " fill="#F9CE3F" transform="translate(289,195)"/>
<path d="M0 0 C1.18771723 3.42943519 0.80226223 5.37784675 -0.4375 8.75 C-0.72496094 9.54921875 -1.01242187 10.3484375 -1.30859375 11.171875 C-1.53675781 11.77515625 -1.76492188 12.3784375 -2 13 C-2.99 13 -3.98 13 -5 13 C-4.39254603 8.14036821 -2.27241033 4.2594482 0 0 Z " fill="#E8C237" transform="translate(286,191)"/>
<path d="M0 0 C0.33 1.32 0.66 2.64 1 4 C0.34 4 -0.32 4 -1 4 C-1 4.99 -1 5.98 -1 7 C-1.66 7 -2.32 7 -3 7 C-2.9175 7.763125 -2.835 8.52625 -2.75 9.3125 C-3 12 -3 12 -5 13.8125 C-5.66 14.204375 -6.32 14.59625 -7 15 C-6.30058404 11.85262818 -5.23921302 8.97411124 -4 6 C-3.34 6 -2.68 6 -2 6 C-1.855625 5.38125 -1.71125 4.7625 -1.5625 4.125 C-1 2 -1 2 0 0 Z " fill="#FDE06E" transform="translate(379,239)"/>
<path d="M0 0 C0.99 0 1.98 0 3 0 C3 0.66 3 1.32 3 2 C4.32 2 5.64 2 7 2 C7 3.32 7 4.64 7 6 C7.66 6 8.32 6 9 6 C8.67 7.32 8.34 8.64 8 10 C7.7525 9.21625 7.505 8.4325 7.25 7.625 C5.80254826 4.58535135 4.97357402 4.30093863 2 3 C1.34 2.01 0.68 1.02 0 0 Z " fill="#FFCE34" transform="translate(364,178)"/>
<path d="M0 0 C2.71236421 3.61648561 3.56677735 4.77607913 4 9 C3.67 9.99 3.34 10.98 3 12 C2.34 12 1.68 12 1 12 C0.67 8.04 0.34 4.08 0 0 Z " fill="#EDD76D" transform="translate(381,194)"/>
<path d="M0 0 C1.9375 1.0625 1.9375 1.0625 4 3 C4.75 6.6875 4.75 6.6875 5 10 C4.01 9.34 3.02 8.68 2 8 C2 6.68 2 5.36 2 4 C1.34 4 0.68 4 0 4 C0 2.68 0 1.36 0 0 Z " fill="#F8D450" transform="translate(371,180)"/>
<path d="M0 0 C3.26460973 1.80412643 4.88929795 2.83394693 7 6 C5.68 6 4.36 6 3 6 C3 5.34 3 4.68 3 4 C2.01 4 1.02 4 0 4 C0 2.68 0 1.36 0 0 Z " fill="#F3D151" transform="translate(364,174)"/>
</svg>
